<?xml version="1.0" encoding="UTF-8" standalone="no"?>
<svg
   xmlns:dc="http://purl.org/dc/elements/1.1/"
   xmlns:cc="http://creativecommons.org/ns#"
   xmlns:rdf="http://www.w3.org/1999/02/22-rdf-syntax-ns#"
   xmlns:svg="http://www.w3.org/2000/svg"
   xmlns="http://www.w3.org/2000/svg"
   xmlns:xlink="http://www.w3.org/1999/xlink"
   xmlns:sodipodi="http://sodipodi.sourceforge.net/DTD/sodipodi-0.dtd"
   xmlns:inkscape="http://www.inkscape.org/namespaces/inkscape"
   version="1.1"
   viewBox="0 0 200.87378 198.23567"
   id="svg40"
   sodipodi:docname="nucleus-42693.svg"
   inkscape:version="0.92.2 (5c3e80d, 2017-08-06)">
  <metadata
     id="metadata44">
    <rdf:RDF>
      <cc:Work
         rdf:about="">
        <dc:format>image/svg+xml</dc:format>
        <dc:type
           rdf:resource="http://purl.org/dc/dcmitype/StillImage" />
        <dc:title></dc:title>
      </cc:Work>
    </rdf:RDF>
  </metadata>
  <sodipodi:namedview
     pagecolor="#ffffff"
     bordercolor="#666666"
     borderopacity="1"
     objecttolerance="10"
     gridtolerance="10"
     guidetolerance="10"
     inkscape:pageopacity="0"
     inkscape:pageshadow="2"
     inkscape:window-width="1920"
     inkscape:window-height="1442"
     id="namedview42"
     showgrid="false"
     inkscape:zoom="3.3672487"
     inkscape:cx="108.70222"
     inkscape:cy="32.091148"
     inkscape:window-x="-11"
     inkscape:window-y="66"
     inkscape:window-maximized="1"
     inkscape:current-layer="svg40" />
  <defs
     id="defs12">
    <radialGradient
       id="b"
       cx="98.942"
       cy="96.032"
       r="11.64"
       gradientTransform="translate(125.05871,139.43308)"
       gradientUnits="userSpaceOnUse">
      <stop
         stop-color="#ffa000"
         offset="0"
         id="stop2" />
      <stop
         stop-color="#f80000"
         stop-opacity=".96907"
         offset="1"
         id="stop4" />
    </radialGradient>
    <radialGradient
       id="a"
       cx="12.698"
       cy="20.106"
       r="7.9074"
       gradientTransform="matrix(1 0 0 .86618 -.56314 2.5439)"
       gradientUnits="userSpaceOnUse">
      <stop
         stop-color="#00cbfa"
         offset="0"
         id="stop7" />
      <stop
         stop-color="#0000fa"
         stop-opacity=".97255"
         offset="1"
         id="stop9" />
    </radialGradient>
    <radialGradient
       inkscape:collect="always"
       xlink:href="#a"
       id="radialGradient1231"
       gradientUnits="userSpaceOnUse"
       gradientTransform="matrix(1,0,0,0.86618,125.05871,142.12373)"
       cx="12.698"
       cy="20.106"
       r="7.9074" />
    <radialGradient
       inkscape:collect="always"
       xlink:href="#a"
       id="radialGradient1233"
       gradientUnits="userSpaceOnUse"
       gradientTransform="matrix(1,0,0,0.86618,125.05871,142.12373)"
       cx="12.698"
       cy="20.106"
       r="7.9074" />
    <radialGradient
       inkscape:collect="always"
       xlink:href="#a"
       id="radialGradient1235"
       gradientUnits="userSpaceOnUse"
       gradientTransform="matrix(1,0,0,0.86618,125.05871,142.12373)"
       cx="12.698"
       cy="20.106"
       r="7.9074" />
    <radialGradient
       inkscape:collect="always"
       xlink:href="#a"
       id="radialGradient1237"
       gradientUnits="userSpaceOnUse"
       gradientTransform="matrix(1,0,0,0.86618,125.05871,142.12373)"
       cx="12.698"
       cy="20.106"
       r="7.9074" />
    <radialGradient
       inkscape:collect="always"
       xlink:href="#a"
       id="radialGradient1239"
       gradientUnits="userSpaceOnUse"
       gradientTransform="matrix(1,0,0,0.86618,125.05871,142.12373)"
       cx="12.698"
       cy="20.106"
       r="7.9074" />
    <radialGradient
       inkscape:collect="always"
       xlink:href="#a"
       id="radialGradient1241"
       gradientUnits="userSpaceOnUse"
       gradientTransform="matrix(1,0,0,0.86618,125.05871,142.12373)"
       cx="12.698"
       cy="20.106"
       r="7.9074" />
    <radialGradient
       inkscape:collect="always"
       xlink:href="#a"
       id="radialGradient1243"
       gradientUnits="userSpaceOnUse"
       gradientTransform="matrix(1,0,0,0.86618,125.05871,142.12373)"
       cx="12.698"
       cy="20.106"
       r="7.9074" />
    <radialGradient
       inkscape:collect="always"
       xlink:href="#a"
       id="radialGradient1245"
       gradientUnits="userSpaceOnUse"
       gradientTransform="matrix(1,0,0,0.86618,125.05871,142.12373)"
       cx="12.698"
       cy="20.106"
       r="7.9074" />
    <radialGradient
       inkscape:collect="always"
       xlink:href="#a-0"
       id="radialGradient1231-3"
       gradientUnits="userSpaceOnUse"
       gradientTransform="matrix(1,0,0,0.86618,-156.53509,48.205466)"
       cx="12.698"
       cy="20.106001"
       r="7.9074001" />
    <radialGradient
       id="a-0"
       cx="12.698"
       cy="20.106001"
       r="7.9074001"
       gradientTransform="matrix(1,0,0,0.86618,-0.56314,2.5439)"
       gradientUnits="userSpaceOnUse">
      <stop
         stop-color="#00cbfa"
         offset="0"
         id="stop7-7" />
      <stop
         stop-color="#0000fa"
         stop-opacity=".97255"
         offset="1"
         id="stop9-7" />
    </radialGradient>
    <radialGradient
       inkscape:collect="always"
       xlink:href="#a-0"
       id="radialGradient1233-4"
       gradientUnits="userSpaceOnUse"
       gradientTransform="matrix(1,0,0,0.86618,-156.53509,48.205466)"
       cx="12.698"
       cy="20.106001"
       r="7.9074001" />
    <radialGradient
       id="radialGradient1264"
       cx="12.698"
       cy="20.106001"
       r="7.9074001"
       gradientTransform="matrix(1,0,0,0.86618,-0.56314,2.5439)"
       gradientUnits="userSpaceOnUse">
      <stop
         stop-color="#00cbfa"
         offset="0"
         id="stop1260" />
      <stop
         stop-color="#0000fa"
         stop-opacity=".97255"
         offset="1"
         id="stop1262" />
    </radialGradient>
    <radialGradient
       inkscape:collect="always"
       xlink:href="#a-0"
       id="radialGradient1235-2"
       gradientUnits="userSpaceOnUse"
       gradientTransform="matrix(1,0,0,0.86618,-156.53509,48.205466)"
       cx="12.698"
       cy="20.106001"
       r="7.9074001" />
    <radialGradient
       id="radialGradient1271"
       cx="12.698"
       cy="20.106001"
       r="7.9074001"
       gradientTransform="matrix(1,0,0,0.86618,-0.56314,2.5439)"
       gradientUnits="userSpaceOnUse">
      <stop
         stop-color="#00cbfa"
         offset="0"
         id="stop1267" />
      <stop
         stop-color="#0000fa"
         stop-opacity=".97255"
         offset="1"
         id="stop1269" />
    </radialGradient>
    <radialGradient
       inkscape:collect="always"
       xlink:href="#a-0"
       id="radialGradient1237-1"
       gradientUnits="userSpaceOnUse"
       gradientTransform="matrix(1,0,0,0.86618,-156.53509,48.205466)"
       cx="12.698"
       cy="20.106001"
       r="7.9074001" />
    <radialGradient
       id="radialGradient1278"
       cx="12.698"
       cy="20.106001"
       r="7.9074001"
       gradientTransform="matrix(1,0,0,0.86618,-0.56314,2.5439)"
       gradientUnits="userSpaceOnUse">
      <stop
         stop-color="#00cbfa"
         offset="0"
         id="stop1274" />
      <stop
         stop-color="#0000fa"
         stop-opacity=".97255"
         offset="1"
         id="stop1276" />
    </radialGradient>
    <radialGradient
       inkscape:collect="always"
       xlink:href="#a-0"
       id="radialGradient1239-5"
       gradientUnits="userSpaceOnUse"
       gradientTransform="matrix(1,0,0,0.86618,-156.53509,48.205466)"
       cx="12.698"
       cy="20.106001"
       r="7.9074001" />
    <radialGradient
       id="radialGradient1285"
       cx="12.698"
       cy="20.106001"
       r="7.9074001"
       gradientTransform="matrix(1,0,0,0.86618,-0.56314,2.5439)"
       gradientUnits="userSpaceOnUse">
      <stop
         stop-color="#00cbfa"
         offset="0"
         id="stop1281" />
      <stop
         stop-color="#0000fa"
         stop-opacity=".97255"
         offset="1"
         id="stop1283" />
    </radialGradient>
    <radialGradient
       inkscape:collect="always"
       xlink:href="#a-0"
       id="radialGradient1241-7"
       gradientUnits="userSpaceOnUse"
       gradientTransform="matrix(1,0,0,0.86618,-156.53509,48.205466)"
       cx="12.698"
       cy="20.106001"
       r="7.9074001" />
    <radialGradient
       id="radialGradient1292"
       cx="12.698"
       cy="20.106001"
       r="7.9074001"
       gradientTransform="matrix(1,0,0,0.86618,-0.56314,2.5439)"
       gradientUnits="userSpaceOnUse">
      <stop
         stop-color="#00cbfa"
         offset="0"
         id="stop1288" />
      <stop
         stop-color="#0000fa"
         stop-opacity=".97255"
         offset="1"
         id="stop1290" />
    </radialGradient>
    <radialGradient
       inkscape:collect="always"
       xlink:href="#a-0"
       id="radialGradient1243-3"
       gradientUnits="userSpaceOnUse"
       gradientTransform="matrix(1,0,0,0.86618,-156.53509,48.205466)"
       cx="12.698"
       cy="20.106001"
       r="7.9074001" />
    <radialGradient
       id="radialGradient1299"
       cx="12.698"
       cy="20.106001"
       r="7.9074001"
       gradientTransform="matrix(1,0,0,0.86618,-0.56314,2.5439)"
       gradientUnits="userSpaceOnUse">
      <stop
         stop-color="#00cbfa"
         offset="0"
         id="stop1295" />
      <stop
         stop-color="#0000fa"
         stop-opacity=".97255"
         offset="1"
         id="stop1297" />
    </radialGradient>
    <radialGradient
       inkscape:collect="always"
       xlink:href="#a-0"
       id="radialGradient1245-3"
       gradientUnits="userSpaceOnUse"
       gradientTransform="matrix(1,0,0,0.86618,-156.53509,48.205466)"
       cx="12.698"
       cy="20.106001"
       r="7.9074001" />
    <radialGradient
       id="radialGradient1306"
       cx="12.698"
       cy="20.106001"
       r="7.9074001"
       gradientTransform="matrix(1,0,0,0.86618,-0.56314,2.5439)"
       gradientUnits="userSpaceOnUse">
      <stop
         stop-color="#00cbfa"
         offset="0"
         id="stop1302" />
      <stop
         stop-color="#0000fa"
         stop-opacity=".97255"
         offset="1"
         id="stop1304" />
    </radialGradient>
    <radialGradient
       id="b-5"
       cx="98.942001"
       cy="96.031998"
       r="11.64"
       gradientTransform="translate(-156.53509,45.514816)"
       gradientUnits="userSpaceOnUse">
      <stop
         stop-color="#ffa000"
         offset="0"
         id="stop2-7" />
      <stop
         stop-color="#f80000"
         stop-opacity=".96907"
         offset="1"
         id="stop4-6" />
    </radialGradient>
  </defs>
  <path
     d="m 247.69185,238.69783 c 0,54.465 -10.278,98.618 -22.956,98.618 -12.679,0 -22.956,-44.153 -22.956,-98.618 0,-54.465 10.278,-98.618 22.956,-98.618 12.678,0 22.956,44.153 22.956,98.618 z"
     id="path14"
     inkscape:connector-curvature="0"
     style="fill:none;stroke:#000000" />
  <path
     d="m 235.58185,238.69783 c 0,6.5748 -5.2115,11.905 -11.64,11.905 -6.4287,0 -11.64,-5.3299 -11.64,-11.905 0,-6.5748 5.2115,-11.905 11.64,-11.905 6.4287,0 11.64,5.3299 11.64,11.905 z"
     id="path16"
     style="fill:url(#b)"
     inkscape:connector-curvature="0" />
  <path
     d="m 240.97185,222.46483 c 38.513,38.513 62.466,77.001 53.501,85.966 -8.965,8.9651 -47.453,-14.988 -85.966,-53.501 -38.516,-38.512 -62.469,-77 -53.504,-85.966 8.965,-8.965 47.453,14.988 85.966,53.501 z"
     id="path18"
     inkscape:connector-curvature="0"
     style="fill:none;stroke:#000000" />
  <path
     d="m 240.97185,254.92983 c -38.513,38.513 -77.001,62.466 -85.966,53.501 -8.9651,-8.965 14.988,-47.453 53.501,-85.966 38.513,-38.513 77.001,-62.466 85.966,-53.501 8.965,8.965 -14.988,47.453 -53.501,85.966 z"
     id="path20"
     inkscape:connector-curvature="0"
     style="fill:none;stroke:#000000" />
  <path
     d="m 226.06185,261.64983 c -55.197,0 -99.94,-10.28 -99.94,-22.952 0,-12.676 44.743,-22.953 99.937,-22.953 55.194,0 99.937,10.276 99.937,22.953 0,12.676 -44.743,22.953 -99.937,22.953 z"
     id="path22"
     inkscape:connector-curvature="0"
     style="fill:none;stroke:#000000" />
  <path
     d="m 172.04385,200.60283 c 6.6e-4,4.2121 -3.2952,7.627 -7.3612,7.627 -4.0659,0 -7.3618,-3.4149 -7.3612,-7.627 6.8e-4,-4.2121 3.2952,-7.627 7.3612,-7.627 4.0659,0 7.3618,3.4149 7.3612,7.627 z"
     id="path24"
     style="fill:url(#radialGradient1231);fill-rule:evenodd"
     inkscape:connector-curvature="0" />
  <path
     d="m 291.62185,273.61983 c 6.7e-4,4.212 -3.2952,7.627 -7.3612,7.627 -4.0659,0 -7.3618,-3.4149 -7.3611,-7.627 6.8e-4,-4.212 3.2952,-7.627 7.3611,-7.627 4.0659,0 7.3618,3.4149 7.3612,7.627 z"
     id="path26"
     style="fill:url(#radialGradient1239);fill-rule:evenodd"
     inkscape:connector-curvature="0" />
  <path
     d="m 264.63185,181.55483 c 6.7e-4,4.2121 -3.2952,7.627 -7.3612,7.627 -4.0659,0 -7.3618,-3.4149 -7.3611,-7.627 6.8e-4,-4.212 3.2952,-7.627 7.3611,-7.627 4.0659,0 7.3618,3.4149 7.3612,7.627 z"
     id="path28"
     style="fill:url(#radialGradient1243);fill-rule:evenodd"
     inkscape:connector-curvature="0" />
  <path
     d="m 195.85385,297.42983 c 6.7e-4,4.212 -3.2952,7.627 -7.3612,7.627 -4.0659,0 -7.3618,-3.4149 -7.3611,-7.627 6.8e-4,-4.212 3.2952,-7.627 7.3611,-7.627 4.0659,0 7.3618,3.4149 7.3612,7.627 z"
     id="path30"
     style="fill:url(#radialGradient1235);fill-rule:evenodd"
     inkscape:connector-curvature="0" />
  <path
     d="m 303.26185,222.29583 c 6.7e-4,4.212 -3.2952,7.627 -7.3612,7.627 -4.0659,0 -7.3618,-3.4149 -7.3611,-7.627 6.8e-4,-4.212 3.2952,-7.627 7.3611,-7.627 4.0659,0 7.3618,3.4149 7.3612,7.627 z"
     id="path32"
     style="fill:url(#radialGradient1241);fill-rule:evenodd"
     inkscape:connector-curvature="0" />
  <path
     d="m 162.51985,255.09983 c 6.6e-4,4.212 -3.2952,7.627 -7.3612,7.627 -4.0659,0 -7.3618,-3.4149 -7.3612,-7.627 6.7e-4,-4.212 3.2952,-7.627 7.3612,-7.627 4.0659,0 7.3618,3.4149 7.3612,7.627 z"
     id="path34"
     style="fill:url(#radialGradient1233);fill-rule:evenodd"
     inkscape:connector-curvature="0" />
  <path
     d="m 247.17185,310.65983 c 6.7e-4,4.2121 -3.2952,7.627 -7.3612,7.627 -4.0659,0 -7.3618,-3.4149 -7.3612,-7.627 6.7e-4,-4.2121 3.2952,-7.627 7.3612,-7.627 4.0659,0 7.3618,3.4149 7.3612,7.627 z"
     id="path36"
     style="fill:url(#radialGradient1237);fill-rule:evenodd"
     inkscape:connector-curvature="0" />
  <path
     d="m 217.01785,164.62383 c 6.7e-4,4.2121 -3.2952,7.627 -7.3612,7.627 -4.0659,0 -7.3618,-3.4149 -7.3612,-7.627 6.7e-4,-4.212 3.2952,-7.627 7.3612,-7.627 4.0659,0 7.3618,3.4149 7.3612,7.627 z"
     id="path38"
     style="fill:url(#radialGradient1245);fill-rule:evenodd"
     inkscape:connector-curvature="0" />
  <path
     d="m -33.901954,144.77957 c 0,54.465 -10.278,98.618 -22.956,98.618 -12.679,0 -22.956,-44.153 -22.956,-98.618 0,-54.465004 10.278,-98.618004 22.956,-98.618004 12.678,0 22.956,44.153 22.956,98.618004 z"
     id="path14-8"
     inkscape:connector-curvature="0"
     style="fill:none;stroke:#000000" />
  <path
     d="m -46.011954,144.77957 c 0,6.5748 -5.2115,11.905 -11.64,11.905 -6.4287,0 -11.64,-5.3299 -11.64,-11.905 0,-6.5748 5.2115,-11.905 11.64,-11.905 6.4287,0 11.64,5.3299 11.64,11.905 z"
     id="path16-3"
     style="fill:url(#b-5)"
     inkscape:connector-curvature="0" />
  <path
     d="m -40.621954,128.54657 c 38.5129998,38.513 62.466,77.001 53.501,85.966 -8.9650002,8.9651 -47.453,-14.988 -85.966,-53.501 -38.515996,-38.512 -62.468996,-77.000004 -53.503996,-85.966004 8.965,-8.965 47.452996,14.988 85.965996,53.501004 z"
     id="path18-0"
     inkscape:connector-curvature="0"
     style="fill:none;stroke:#000000" />
  <path
     d="m -40.621954,161.01157 c -38.513,38.513 -77.000996,62.466 -85.965996,53.501 -8.9651,-8.965 14.988,-47.453 53.500996,-85.966 38.513,-38.513004 77.0009998,-62.466004 85.966,-53.501004 8.965,8.965 -14.9880002,47.453004 -53.501,85.966004 z"
     id="path20-8"
     inkscape:connector-curvature="0"
     style="fill:none;stroke:#000000" />
  <path
     d="m -55.531954,167.73157 c -55.196996,0 -99.939996,-10.28 -99.939996,-22.952 0,-12.676 44.743,-22.953 99.936996,-22.953 55.19399983,0 99.937,10.276 99.937,22.953 0,12.676 -44.74300017,22.953 -99.937,22.953 z"
     id="path22-8"
     inkscape:connector-curvature="0"
     style="fill:none;stroke:#000000" />
  <path
     d="m -109.54995,106.68457 c 6.6e-4,4.2121 -3.2952,7.627 -7.3612,7.627 -4.0659,0 -7.3618,-3.4149 -7.3612,-7.627 6.8e-4,-4.2121 3.2952,-7.627004 7.3612,-7.627004 4.0659,0 7.3618,3.414904 7.3612,7.627004 z"
     id="path24-3"
     style="fill:url(#radialGradient1231-3);fill-rule:evenodd"
     inkscape:connector-curvature="0" />
  <path
     d="m 10.028046,179.70157 c 6.7e-4,4.212 -3.2952002,7.627 -7.3612002,7.627 -4.0659,0 -7.3618,-3.4149 -7.3611,-7.627 6.8e-4,-4.212 3.2952,-7.627 7.3611,-7.627 4.0659,0 7.3618002,3.4149 7.3612002,7.627 z"
     id="path26-6"
     style="fill:url(#radialGradient1239-5);fill-rule:evenodd"
     inkscape:connector-curvature="0" />
  <path
     d="m -16.961954,87.636566 c 6.7e-4,4.2121 -3.2952,7.627 -7.3612,7.627 -4.0659,0 -7.3618,-3.4149 -7.3611,-7.627 6.8e-4,-4.212 3.2952,-7.627 7.3611,-7.627 4.0659,0 7.3618,3.4149 7.3612,7.627 z"
     id="path28-6"
     style="fill:url(#radialGradient1243-3);fill-rule:evenodd"
     inkscape:connector-curvature="0" />
  <path
     d="m -85.739954,203.51157 c 6.7e-4,4.212 -3.2952,7.627 -7.3612,7.627 -4.0659,0 -7.361796,-3.4149 -7.361096,-7.627 6.8e-4,-4.212 3.295196,-7.627 7.361096,-7.627 4.0659,0 7.3618,3.4149 7.3612,7.627 z"
     id="path30-4"
     style="fill:url(#radialGradient1235-2);fill-rule:evenodd"
     inkscape:connector-curvature="0" />
  <path
     d="m 21.668046,128.37757 c 6.7e-4,4.212 -3.2952,7.627 -7.3612,7.627 -4.0659,0 -7.3618002,-3.4149 -7.3611002,-7.627 6.8e-4,-4.212 3.2952002,-7.627 7.3611002,-7.627 4.0659,0 7.3618,3.4149 7.3612,7.627 z"
     id="path32-0"
     style="fill:url(#radialGradient1241-7);fill-rule:evenodd"
     inkscape:connector-curvature="0" />
  <path
     d="m -119.07395,161.18157 c 6.6e-4,4.212 -3.2952,7.627 -7.3612,7.627 -4.0659,0 -7.3618,-3.4149 -7.3612,-7.627 6.7e-4,-4.212 3.2952,-7.627 7.3612,-7.627 4.0659,0 7.3618,3.4149 7.3612,7.627 z"
     id="path34-3"
     style="fill:url(#radialGradient1233-4);fill-rule:evenodd"
     inkscape:connector-curvature="0" />
  <path
     d="m -34.421954,216.74157 c 6.7e-4,4.2121 -3.2952,7.627 -7.3612,7.627 -4.0659,0 -7.3618,-3.4149 -7.3612,-7.627 6.7e-4,-4.2121 3.2952,-7.627 7.3612,-7.627 4.0659,0 7.3618,3.4149 7.3612,7.627 z"
     id="path36-9"
     style="fill:url(#radialGradient1237-1);fill-rule:evenodd"
     inkscape:connector-curvature="0" />
  <path
     d="m -64.575954,70.705566 c 6.7e-4,4.2121 -3.2952,7.627 -7.3612,7.627 -4.0659,0 -7.3618,-3.4149 -7.3612,-7.627 6.7e-4,-4.212 3.2952,-7.627 7.3612,-7.627 4.0659,0 7.3618,3.4149 7.3612,7.627 z"
     id="path38-4"
     style="fill:url(#radialGradient1245-3);fill-rule:evenodd"
     inkscape:connector-curvature="0" />
</svg>
